# xmcd CD database file
#
# Track frame offsets:
#	150
#	3462
#	26467
#	52242
#	74007
#	93087
#	117515
#	138840
#	163537
#	184717
#	204732
#	234150
#	237700
#	265930
#	294445
#
# Disc length: 4255 seconds
#
# Revision: 0
# Processed by: cddbd v1.5.1PL0 Copyright (c) Steve Scherf et al.
# Submitted via: CDex 1.51
#
DISCID=d7109d0f
DTITLE=D-LOOP - grace mode
DYEAR=2004
DGENRE=JPop
TTITLE0="D"
TTITLE1=Style
TTITLE2=Destination
TTITLE3=Love me tender 〜deep blue mix〜
TTITLE4=Morning Mist
TTITLE5=a rainy day
TTITLE6=How To Live?
TTITLE7=GLORY DAYS 〜more funk mix〜
TTITLE8=奇蹟 -truth connected-
TTITLE9=NO MORE CRY
TTITLE10=I'm Happy We Met 〜respect and love the earth〜
TTITLE11=Dawn 〜sign of interlude〜
TTITLE12=Sign of Destiny 〜complete mix〜
TTITLE13=No One Else But You
TTITLE14=Just place of Love 〜first place mix〜
EXTD=YEAR: 2004
EXTT0=
EXTT1=
EXTT2=
EXTT3=
EXTT4=
EXTT5=
EXTT6=
EXTT7=
EXTT8=
EXTT9=
EXTT10=
EXTT11=
EXTT12=
EXTT13=
EXTT14=
PLAYORDER=
